#!OML:ASF H:\Terrain\Patient Classification 1\Walking\steve\steve.ASF
:FULLY-SPECIFIED
:DEGREES
227
root 8.32744 14.7702 19.8654 11.4122 6.56899 6.85458
lowerback 1.87464 -6.76938 -5.64363
upperback -2.50124 -9.19915 1.66214
thorax -2.48131 -4.46366 5.11461
lowerneck -12.9767 2.23482 3.08917
upperneck 11.7861 2.91199 -3.34685
head 5.78666 1.30113 -1.30533
rclavicle 3.8763e-015 -1.51076e-014
rhumerus -83.2944 -6.68842 -7.38937
rradius 18.7445
rwrist 11.9874
rhand -13.7549 -36.6917
rfingers 7.12502
rthumb 12.3654 -66.306
lclavicle 3.8763e-015 -1.51076e-014
lhumerus 45.2612 1.05939 64.1671
lradius 35.4324
lwrist 30.1245
lhand -22.2013 -13.6886
lfingers 7.12502
lthumb 4.21441 16.2495
rfemur -63.3873 -1.50147 14.5985
rtibia 42.1971
rfoot -10.4965 -1.94344
rtoes -8.47123
lfemur 32.0405 -2.12559 -28.1208
ltibia 2.8625e-014
lfoot 1.40693 -9.4098
ltoes -2.18714
228
root 8.34006 14.7333 20.1552 12.0319 6.55758 6.21001
lowerback 1.8412 -6.74221 -4.69584
upperback -3.06955 -9.12731 2.14274
thorax -3.12723 -4.41089 5.14345
lowerneck -12.9875 2.4058 3.55353
upperneck 11.9853 3.15699 -4.00984
head 5.87802 1.38969 -1.56866
rclavicle 7.00716e-014 1.03368e-014
rhumerus -83.4571 -6.63449 -5.51522
rradius 18.4387
rwrist 13.5546
rhand -12.4714 -36.3515
rfingers 7.12502
rthumb 13.6027 -65.8871
lclavicle 7.00716e-014 1.03368e-014
lhumerus 44.0844 0.840578 63.8444
lradius 36.1272
lwrist 30.2443
lhand -21.7494 -13.5225
lfingers 7.12502
lthumb 4.65075 16.4064
rfemur -64.7546 -1.54633 15.313
rtibia 44.6483
rfoot -9.30196 -1.17429
rtoes -4.43468
lfemur 32.0651 -2.3868 -27.4462
ltibia 1.90833e-014
lfoot 3.87312 -7.3301
ltoes 3.76104
229
root 8.35934 14.6847 20.4301 12.4689 6.41955 5.51185
lowerback 1.89967 -6.66448 -3.75254
upperback -3.43932 -8.97745 2.65778
thorax -3.62051 -4.33271 5.20419
lowerneck -12.9405 2.46196 3.44465
upperneck 11.8676 3.26201 -4.08004
head 5.8366 1.4316 -1.56409
rclavicle 1.14401e-013 -1.59028e-014
rhumerus -83.4835 -6.92433 -4.28907
rradius 18.2247
rwrist 15.0136
rhand -12.294 -36.0071
rfingers 7.12502
rthumb 13.7737 -65.5312
lclavicle 1.14401e-013 -1.59028e-014
lhumerus 42.8928 0.809404 63.6588
lradius 36.9466
lwrist 30.2532
lhand -21.3081 -13.8609
lfingers 7.12502
lthumb 5.07688 16.0582
rfemur -65.879 -1.64055 16.3091
rtibia 47.2346
rfoot -8.35544 -0.329939
rtoes -3.05647
lfemur 32.3603 -2.46315 -26.7859
ltibia -3.18055e-015
lfoot 6.46417 -4.70131
ltoes 5.65506
230
root 8.38771 14.6413 20.7051 12.5006 6.25008 4.81433
lowerback 2.07913 -6.63602 -2.84059
upperback -3.46719 -8.8867 3.17059
thorax -3.81378 -4.30123 5.2659
lowerneck -12.9084 2.46178 3.13476
upperneck 11.4593 3.31432 -4.12098
head 5.70043 1.44311 -1.52244
rclavicle 1.60022e-014 5.56597e-015
rhumerus -83.1457 -7.57114 -3.44098
rradius 18.2357
rwrist 15.3737
rhand -13.2859 -37.0902
rfingers 7.12502
rthumb 12.8176 -66.6767
lclavicle 1.60022e-014 5.56597e-015
lhumerus 41.7902 1.35437 63.8444
lradius 37.7195
lwrist 29.8628
lhand -20.6211 -14.5394
lfingers 7.12502
lthumb 5.74016 15.3629
rfemur -66.4936 -1.94561 17.4949
rtibia 49.9019
rfoot -7.52831 0.316814
rtoes -7.2224
lfemur 32.9976 -2.44855 -26.1653
ltibia -9.54166e-015
lfoot 9.07727 -2.85293
ltoes 5.4614
231
root 8.4085 14.6013 20.9794 12.5832 5.80939 4.48769
lowerback 2.26462 -6.52342 -2.33751
upperback -3.50698 -8.70455 3.47083
thorax -4.00565 -4.21485 5.32836
lowerneck -12.9271 2.56103 3.21176
upperneck 11.2402 3.47253 -4.44763
head 5.64827 1.50058 -1.62404
rclavicle -1.21259e-014 -6.36111e-015
rhumerus -83.028 -8.44584 -2.3582
rradius 18.2158
rwrist 16.912
rhand -14.6286 -37.6043
rfingers 7.12502
rthumb 11.523 -67.2676
lclavicle -1.21259e-014 -6.36111e-015
lhumerus 40.5895 1.45177 63.5421
lradius 38.6036
lwrist 30.0761
lhand -20.1307 -14.813
lfingers 7.12502
lthumb 6.21366 15.0758
rfemur -67.2288 -1.90579 18.1141
rtibia 52.4934
rfoot -7.29134 0.638988
rtoes -12.6029
lfemur 33.4408 -2.25285 -25.9561
ltibia 1.59028e-014
lfoot 11.9797 -1.90666
ltoes 3.29342
232
root 8.42161 14.573 21.2462 12.8479 5.23919 4.48757
lowerback 2.47441 -6.37969 -2.20745
upperback -3.5995 -8.50431 3.5586
thorax -4.24669 -4.10875 5.37947
lowerneck -12.92 2.82089 4.03767
upperneck 10.9451 3.74177 -5.04251
head 5.59254 1.62576 -1.92241
rclavicle -6.91771e-014 5.56597e-015
rhumerus -82.9833 -9.43126 -1.70809
rradius 18.2827
rwrist 17.796
rhand -14.5211 -37.2089
rfingers 7.12502
rthumb 11.6266 -66.8663
lclavicle -6.91771e-014 5.56597e-015
lhumerus 39.4004 1.0824 62.5498
lradius 39.493
lwrist 31.0248
lhand -19.994 -14.6473
lfingers 7.12502
lthumb 6.34562 15.2376
rfemur -68.0645 -1.72699 18.3557
rtibia 54.7806
rfoot -7.37739 0.989514
rtoes -10.9481
lfemur 33.5406 -2.02366 -26.0744
ltibia -3.18055e-015
lfoot 15.2881 -0.439585
ltoes 4.03347
